<svg data-v-fde0c5aa="" xmlns="http://www.w3.org/2000/svg" viewBox="0 0 300 300" class="icon"><!----><defs data-v-fde0c5aa=""><!----></defs><rect data-v-fde0c5aa="" fill="transparent" x="0" y="0" width="300px" height="300px" class="logo-background-square"></rect><!----><defs data-v-fde0c5aa=""><linearGradient data-v-fde0c5aa="" gradientTransform="rotate(25)" id="a6158ba6-87b3-4411-9b0b-075ad5ffaef1" x1="0%" y1="0%" x2="100%" y2="0%"><stop data-v-fde0c5aa="" offset="0%" stop-color="#41E296" stop-opacity="1"></stop><stop data-v-fde0c5aa="" offset="100%" stop-color="#00C4EE" stop-opacity="1"></stop></linearGradient></defs><g data-v-fde0c5aa="" id="7b6e12d5-770a-445d-b1e5-e693ea5767ad" fill="url(#a6158ba6-87b3-4411-9b0b-075ad5ffaef1)" stroke="none" transform="matrix(2.2,0,0,2.2,40.000004196166984,39.999999999999986)"><path d="M94.42 37.32l-2.638 7.907-12.775 12.38 1.418 14.804-6.692 7.095.406 4.878-4.056 2.638-1.22 5.266-8.924 7.303-7.503.409-7.914-20.286-1.621-10.946 2.836-4.061-6.282-12.782-.609-5.475-6.896-3.042-14.402 2.84L5.58 35.494l.412-13.18S16.735 7.913 16.938 7.3c.208-.603 4.665-5.473 4.665-5.473l5.478.401L40.878 0l2.023 1.415-.203 4.469 10.143 3.235 4.665-2.422 14.809 4.861-.406 3.648 8.318 17.042 6.489 5.072h7.704zM91.782 68.152l1.626 5.484-4.26 11.755-3.449.411-.203-6.296-.203-5.266z"></path></g><!----></svg>